<?xml version="1.0" encoding="utf-8"?>
<svg xmlns="http://www.w3.org/2000/svg" xmlns:xlink="http://www.w3.org/1999/xlink" width="100%" height="100%"
    preserveAspectRatio="xMidYMid meet" viewBox="0 0 1280 573"
    style="z-index:1;margin-right:-1.33333px;display:block;background-color:rgb(241, 242, 243);animation-play-state:paused">
    <g transform="translate(640,286.5) scale(1,1) translate(-640,-286.5)"
        style="transform:matrix(1, 0, 0, 1, 0, 0);animation-play-state:paused">
        <g id="bk-0.8149883299826919" style="animation-play-state:paused">
            <path d="M 628 280 L 730 273 L 635 165 Z" stroke="#56935a" fill="#56935a"
                style="animation-play-state:paused"></path>
            <path d="M 730 273 L 759 203 L 635 165 Z" stroke="#57945a" fill="#57945a"
                style="animation-play-state:paused"></path>
            <path d="M 635 165 L 528 273 L 628 280 Z" stroke="#5a965b" fill="#5a965b"
                style="animation-play-state:paused"></path>
            <path d="M 759 203 L 745 69 L 635 165 Z" stroke="#629d5c" fill="#629d5c"
                style="animation-play-state:paused"></path>
            <path d="M 745 69 L 626 76 L 635 165 Z" stroke="#6ba55e" fill="#6ba55e" style="animation-play-state:paused">
            </path>
            <path d="M 635 165 L 513 168 L 528 273 Z" stroke="#629d5c" fill="#629d5c"
                style="animation-play-state:paused"></path>
            <path d="M 535 71 L 513 168 L 635 165 Z" stroke="#6ca55e" fill="#6ca55e"
                style="animation-play-state:paused"></path>
            <path d="M 540 371 L 644 383 L 628 280 Z" stroke="#4c8957" fill="#4c8957"
                style="animation-play-state:paused"></path>
            <path d="M 628 280 L 644 383 L 730 273 Z" stroke="#4c8957" fill="#4c8957"
                style="animation-play-state:paused"></path>
            <path d="M 744 382 L 828 288 L 730 273 Z" stroke="#468455" fill="#468455"
                style="animation-play-state:paused"></path>
            <path d="M 730 273 L 828 288 L 759 203 Z" stroke="#4e8b57" fill="#4e8b57"
                style="animation-play-state:paused"></path>
            <path d="M 759 203 L 846 70 L 745 69 Z" stroke="#639e5c" fill="#639e5c" style="animation-play-state:paused">
            </path>
            <path d="M 828 288 L 840 187 L 759 203 Z" stroke="#508d58" fill="#508d58"
                style="animation-play-state:paused"></path>
            <path d="M 644 383 L 744 382 L 730 273 Z" stroke="#468355" fill="#468355"
                style="animation-play-state:paused"></path>
            <path d="M 626 76 L 535 71 L 635 165 Z" stroke="#6fa85f" fill="#6fa85f" style="animation-play-state:paused">
            </path>
            <path d="M 428 369 L 540 371 L 528 273 Z" stroke="#549159" fill="#549159"
                style="animation-play-state:paused"></path>
            <path d="M 528 273 L 540 371 L 628 280 Z" stroke="#539059" fill="#539059"
                style="animation-play-state:paused"></path>
            <path d="M 840 187 L 846 70 L 759 203 Z" stroke="#5b975b" fill="#5b975b"
                style="animation-play-state:paused"></path>
            <path d="M 745 69 L 647 -6 L 626 76 Z" stroke="#76ad60" fill="#76ad60" style="animation-play-state:paused">
            </path>
            <path d="M 744 382 L 828 363 L 828 288 Z" stroke="#417e53" fill="#417e53"
                style="animation-play-state:paused"></path>
            <path d="M 828 288 L 944 285 L 840 187 Z" stroke="#498756" fill="#498756"
                style="animation-play-state:paused"></path>
            <path d="M 751 -31 L 647 -6 L 745 69 Z" stroke="#7ab060" fill="#7ab060" style="animation-play-state:paused">
            </path>
            <path d="M 626 76 L 550 -13 L 535 71 Z" stroke="#7cb161" fill="#7cb161" style="animation-play-state:paused">
            </path>
            <path d="M 451 91 L 435 178 L 513 168 Z" stroke="#71a95f" fill="#71a95f"
                style="animation-play-state:paused"></path>
            <path d="M 513 168 L 435 178 L 528 273 Z" stroke="#66a05d" fill="#66a05d"
                style="animation-play-state:paused"></path>
            <path d="M 846 70 L 751 -31 L 745 69 Z" stroke="#72aa5f" fill="#72aa5f" style="animation-play-state:paused">
            </path>
            <path d="M 550 -13 L 451 91 L 535 71 Z" stroke="#7eb361" fill="#7eb361" style="animation-play-state:paused">
            </path>
            <path d="M 535 71 L 451 91 L 513 168 Z" stroke="#74ac5f" fill="#74ac5f" style="animation-play-state:paused">
            </path>
            <path d="M 435 178 L 424 262 L 528 273 Z" stroke="#639e5c" fill="#639e5c"
                style="animation-play-state:paused"></path>
            <path d="M 540 371 L 627 483 L 644 383 Z" stroke="#458355" fill="#458355"
                style="animation-play-state:paused"></path>
            <path d="M 644 383 L 748 482 L 744 382 Z" stroke="#3e7b52" fill="#3e7b52"
                style="animation-play-state:paused"></path>
            <path d="M 744 382 L 829 476 L 828 363 Z" stroke="#3a7751" fill="#3a7751"
                style="animation-play-state:paused"></path>
            <path d="M 930 386 L 944 285 L 828 288 Z" stroke="#3f7c53" fill="#3f7c53"
                style="animation-play-state:paused"></path>
            <path d="M 840 187 L 920 58 L 846 70 Z" stroke="#619c5c" fill="#619c5c" style="animation-play-state:paused">
            </path>
            <path d="M 627 483 L 748 482 L 644 383 Z" stroke="#3e7b52" fill="#3e7b52"
                style="animation-play-state:paused"></path>
            <path d="M 828 363 L 930 386 L 828 288 Z" stroke="#3e7b52" fill="#3e7b52"
                style="animation-play-state:paused"></path>
            <path d="M 944 285 L 939 181 L 840 187 Z" stroke="#4d8a57" fill="#4d8a57"
                style="animation-play-state:paused"></path>
            <path d="M 846 70 L 849 -19 L 751 -31 Z" stroke="#76ad60" fill="#76ad60"
                style="animation-play-state:paused"></path>
            <path d="M 627 -114 L 550 -13 L 647 -6 Z" stroke="#8bbd63" fill="#8bbd63"
                style="animation-play-state:paused"></path>
            <path d="M 647 -6 L 550 -13 L 626 76 Z" stroke="#7fb361" fill="#7fb361" style="animation-play-state:paused">
            </path>
            <path d="M 920 58 L 849 -19 L 846 70 Z" stroke="#6ea65e" fill="#6ea65e" style="animation-play-state:paused">
            </path>
            <path d="M 540 371 L 536 479 L 627 483 Z" stroke="#458255" fill="#458255"
                style="animation-play-state:paused"></path>
            <path d="M 627 483 L 634 582 L 748 482 Z" stroke="#387550" fill="#387550"
                style="animation-play-state:paused"></path>
            <path d="M 428 369 L 536 479 L 540 371 Z" stroke="#4c8a57" fill="#4c8a57"
                style="animation-play-state:paused"></path>
            <path d="M 424 262 L 428 369 L 528 273 Z" stroke="#5b975b" fill="#5b975b"
                style="animation-play-state:paused"></path>
            <path d="M 939 181 L 920 58 L 840 187 Z" stroke="#59955a" fill="#59955a"
                style="animation-play-state:paused"></path>
            <path d="M 748 482 L 829 476 L 744 382 Z" stroke="#387450" fill="#387450"
                style="animation-play-state:paused"></path>
            <path d="M 940 483 L 930 386 L 828 363 Z" stroke="#34714e" fill="#34714e"
                style="animation-play-state:paused"></path>
            <path d="M 944 285 L 1065 183 L 939 181 Z" stroke="#4a8756" fill="#4a8756"
                style="animation-play-state:paused"></path>
            <path d="M 335 190 L 365 288 L 424 262 Z" stroke="#68a25d" fill="#68a25d"
                style="animation-play-state:paused"></path>
            <path d="M 424 262 L 365 288 L 428 369 Z" stroke="#5e9a5b" fill="#5e9a5b"
                style="animation-play-state:paused"></path>
            <path d="M 428 369 L 448 488 L 536 479 Z" stroke="#4b8957" fill="#4b8957"
                style="animation-play-state:paused"></path>
            <path d="M 335 190 L 424 262 L 435 178 Z" stroke="#6ca55e" fill="#6ca55e"
                style="animation-play-state:paused"></path>
            <path d="M 336 68 L 435 178 L 451 91 Z" stroke="#7ab060" fill="#7ab060" style="animation-play-state:paused">
            </path>
            <path d="M 336 68 L 335 190 L 435 178 Z" stroke="#78ae60" fill="#78ae60"
                style="animation-play-state:paused"></path>
            <path d="M 446 -113 L 435 -16 L 550 -13 Z" stroke="#94c264" fill="#94c264"
                style="animation-play-state:paused"></path>
            <path d="M 550 -13 L 435 -16 L 451 91 Z" stroke="#86b962" fill="#86b962"
                style="animation-play-state:paused"></path>
            <path d="M 847 -119 L 725 -110 L 751 -31 Z" stroke="#8cbd63" fill="#8cbd63"
                style="animation-play-state:paused"></path>
            <path d="M 751 -31 L 725 -110 L 647 -6 Z" stroke="#87b962" fill="#87b962"
                style="animation-play-state:paused"></path>
            <path d="M 847 -119 L 751 -31 L 849 -19 Z" stroke="#83b762" fill="#83b762"
                style="animation-play-state:paused"></path>
            <path d="M 725 -110 L 627 -114 L 647 -6 Z" stroke="#8fbf63" fill="#8fbf63"
                style="animation-play-state:paused"></path>
            <path d="M 328 487 L 448 488 L 428 369 Z" stroke="#508d58" fill="#508d58"
                style="animation-play-state:paused"></path>
            <path d="M 536 479 L 634 582 L 627 483 Z" stroke="#3d7a52" fill="#3d7a52"
                style="animation-play-state:paused"></path>
            <path d="M 553 592 L 634 582 L 536 479 Z" stroke="#3d7a52" fill="#3d7a52"
                style="animation-play-state:paused"></path>
            <path d="M 748 482 L 741 576 L 829 476 Z" stroke="#326e4d" fill="#326e4d"
                style="animation-play-state:paused"></path>
            <path d="M 1056 -33 L 931 -18 L 920 58 Z" stroke="#71a95f" fill="#71a95f"
                style="animation-play-state:paused"></path>
            <path d="M 920 58 L 931 -18 L 849 -19 Z" stroke="#72aa5f" fill="#72aa5f"
                style="animation-play-state:paused"></path>
            <path d="M 627 -114 L 536 -125 L 550 -13 Z" stroke="#96c464" fill="#96c464"
                style="animation-play-state:paused"></path>
            <path d="M 435 -16 L 336 68 L 451 91 Z" stroke="#86b962" fill="#86b962" style="animation-play-state:paused">
            </path>
            <path d="M 829 476 L 940 483 L 828 363 Z" stroke="#336f4e" fill="#336f4e"
                style="animation-play-state:paused"></path>
            <path d="M 1063 283 L 1065 183 L 944 285 Z" stroke="#438154" fill="#438154"
                style="animation-play-state:paused"></path>
            <path d="M 933 581 L 940 483 L 829 476 Z" stroke="#2b6649" fill="#2b6649"
                style="animation-play-state:paused"></path>
            <path d="M 634 582 L 741 576 L 748 482 Z" stroke="#34704e" fill="#34704e"
                style="animation-play-state:paused"></path>
            <path d="M 931 -18 L 847 -119 L 849 -19 Z" stroke="#80b461" fill="#80b461"
                style="animation-play-state:paused"></path>
            <path d="M 1063 283 L 944 285 L 1035 385 Z" stroke="#3a7751" fill="#3a7751"
                style="animation-play-state:paused"></path>
            <path d="M 939 181 L 1033 66 L 920 58 Z" stroke="#5e995b" fill="#5e995b"
                style="animation-play-state:paused"></path>
            <path d="M 365 288 L 311 369 L 428 369 Z" stroke="#5d995b" fill="#5d995b"
                style="animation-play-state:paused"></path>
            <path d="M 248 286 L 311 369 L 365 288 Z" stroke="#659f5d" fill="#659f5d"
                style="animation-play-state:paused"></path>
            <path d="M 264 202 L 365 288 L 335 190 Z" stroke="#6fa75f" fill="#6fa75f"
                style="animation-play-state:paused"></path>
            <path d="M 1035 385 L 944 285 L 930 386 Z" stroke="#387450" fill="#387450"
                style="animation-play-state:paused"></path>
            <path d="M 1065 183 L 1033 66 L 939 181 Z" stroke="#549159" fill="#549159"
                style="animation-play-state:paused"></path>
            <path d="M 440 576 L 536 479 L 448 488 Z" stroke="#468355" fill="#468355"
                style="animation-play-state:paused"></path>
            <path d="M 440 576 L 553 592 L 536 479 Z" stroke="#417f54" fill="#417f54"
                style="animation-play-state:paused"></path>
            <path d="M 634 582 L 636 671 L 741 576 Z" stroke="#33704e" fill="#33704e"
                style="animation-play-state:paused"></path>
            <path d="M 940 483 L 1035 385 L 930 386 Z" stroke="#306c4c" fill="#306c4c"
                style="animation-play-state:paused"></path>
            <path d="M 741 687 L 855 587 L 741 576 Z" stroke="#2c674a" fill="#2c674a"
                style="animation-play-state:paused"></path>
            <path d="M 741 576 L 855 587 L 829 476 Z" stroke="#2e694b" fill="#2e694b"
                style="animation-play-state:paused"></path>
            <path d="M 940 483 L 1041 485 L 1035 385 Z" stroke="#2b664a" fill="#2b664a"
                style="animation-play-state:paused"></path>
            <path d="M 627 -114 L 446 -113 L 536 -125 Z" stroke="#a0ca65" fill="#a0ca65"
                style="animation-play-state:paused"></path>
            <path d="M 536 -125 L 446 -113 L 550 -13 Z" stroke="#9ac664" fill="#9ac664"
                style="animation-play-state:paused"></path>
            <path d="M 435 -16 L 328 -22 L 336 68 Z" stroke="#90c063" fill="#90c063"
                style="animation-play-state:paused"></path>
            <path d="M 446 -113 L 328 -22 L 435 -16 Z" stroke="#99c664" fill="#99c664"
                style="animation-play-state:paused"></path>
            <path d="M 232 86 L 264 202 L 335 190 Z" stroke="#7cb261" fill="#7cb261"
                style="animation-play-state:paused"></path>
            <path d="M 232 86 L 335 190 L 336 68 Z" stroke="#82b661" fill="#82b661" style="animation-play-state:paused">
            </path>
            <path d="M 234 385 L 328 487 L 311 369 Z" stroke="#5c985b" fill="#5c985b"
                style="animation-play-state:paused"></path>
            <path d="M 311 369 L 328 487 L 428 369 Z" stroke="#57935a" fill="#57935a"
                style="animation-play-state:paused"></path>
            <path d="M 1056 -33 L 967 -91 L 931 -18 Z" stroke="#7ab060" fill="#7ab060"
                style="animation-play-state:paused"></path>
            <path d="M 931 -18 L 967 -91 L 847 -119 Z" stroke="#83b762" fill="#83b762"
                style="animation-play-state:paused"></path>
            <path d="M 847 -119 L 1045 -133 L 725 -110 Z" stroke="#8fbf63" fill="#8fbf63"
                style="animation-play-state:paused"></path>
            <path d="M 264 202 L 248 286 L 365 288 Z" stroke="#6da65e" fill="#6da65e"
                style="animation-play-state:paused"></path>
            <path d="M 328 487 L 440 576 L 448 488 Z" stroke="#4b8857" fill="#4b8857"
                style="animation-play-state:paused"></path>
            <path d="M 1033 66 L 1056 -33 L 920 58 Z" stroke="#6aa35e" fill="#6aa35e"
                style="animation-play-state:paused"></path>
            <path d="M 1142 70 L 1056 -33 L 1033 66 Z" stroke="#66a15d" fill="#66a15d"
                style="animation-play-state:paused"></path>
            <path d="M 855 587 L 933 581 L 829 476 Z" stroke="#2a6449" fill="#2a6449"
                style="animation-play-state:paused"></path>
            <path d="M 328 -22 L 232 86 L 336 68 Z" stroke="#8ebf63" fill="#8ebf63" style="animation-play-state:paused">
            </path>
            <path d="M 164 305 L 234 385 L 248 286 Z" stroke="#6ba45e" fill="#6ba45e"
                style="animation-play-state:paused"></path>
            <path d="M 535 695 L 636 671 L 553 592 Z" stroke="#397550" fill="#397550"
                style="animation-play-state:paused"></path>
            <path d="M 553 592 L 636 671 L 634 582 Z" stroke="#377450" fill="#377450"
                style="animation-play-state:paused"></path>
            <path d="M 855 587 L 937 683 L 933 581 Z" stroke="#255d46" fill="#255d46"
                style="animation-play-state:paused"></path>
            <path d="M 933 581 L 1041 485 L 940 483 Z" stroke="#276147" fill="#276147"
                style="animation-play-state:paused"></path>
            <path d="M 1148 284 L 1065 183 L 1063 283 Z" stroke="#417e53" fill="#417e53"
                style="animation-play-state:paused"></path>
            <path d="M 1148 284 L 1140 183 L 1065 183 Z" stroke="#458255" fill="#458255"
                style="animation-play-state:paused"></path>
            <path d="M 1065 183 L 1140 183 L 1033 66 Z" stroke="#528f59" fill="#528f59"
                style="animation-play-state:paused"></path>
            <path d="M 1148 284 L 1063 283 L 1151 393 Z" stroke="#36724f" fill="#36724f"
                style="animation-play-state:paused"></path>
            <path d="M 164 305 L 248 286 L 264 202 Z" stroke="#71a95f" fill="#71a95f"
                style="animation-play-state:paused"></path>
            <path d="M 248 286 L 234 385 L 311 369 Z" stroke="#649f5d" fill="#649f5d"
                style="animation-play-state:paused"></path>
            <path d="M 1151 393 L 1063 283 L 1035 385 Z" stroke="#336f4e" fill="#336f4e"
                style="animation-play-state:paused"></path>
            <path d="M 636 671 L 741 687 L 741 576 Z" stroke="#306b4c" fill="#306b4c"
                style="animation-play-state:paused"></path>
            <path d="M 1231 156 L 1142 70 L 1140 183 Z" stroke="#518e58" fill="#518e58"
                style="animation-play-state:paused"></path>
            <path d="M 1140 183 L 1142 70 L 1033 66 Z" stroke="#58945a" fill="#58945a"
                style="animation-play-state:paused"></path>
            <path d="M 427 681 L 535 695 L 553 592 Z" stroke="#3e7b52" fill="#3e7b52"
                style="animation-play-state:paused"></path>
            <path d="M 636 671 L 535 695 L 741 687 Z" stroke="#34704e" fill="#34704e"
                style="animation-play-state:paused"></path>
            <path d="M 446 -113 L 334 -134 L 328 -22 Z" stroke="#a4cd65" fill="#a4cd65"
                style="animation-play-state:paused"></path>
            <path d="M 328 -22 L 245 -18 L 232 86 Z" stroke="#96c464" fill="#96c464"
                style="animation-play-state:paused"></path>
            <path d="M 627 -114 L 334 -134 L 446 -113 Z" stroke="#a4cd66" fill="#a4cd66"
                style="animation-play-state:paused"></path>
            <path d="M 251 501 L 345 601 L 328 487 Z" stroke="#528f59" fill="#528f59"
                style="animation-play-state:paused"></path>
            <path d="M 328 487 L 345 601 L 440 576 Z" stroke="#4b8957" fill="#4b8957"
                style="animation-play-state:paused"></path>
            <path d="M 440 576 L 427 681 L 553 592 Z" stroke="#417e54" fill="#417e54"
                style="animation-play-state:paused"></path>
            <path d="M 1122 -33 L 1045 -133 L 1056 -33 Z" stroke="#7bb160" fill="#7bb160"
                style="animation-play-state:paused"></path>
            <path d="M 1056 -33 L 1045 -133 L 967 -91 Z" stroke="#81b661" fill="#81b661"
                style="animation-play-state:paused"></path>
            <path d="M 967 -91 L 1045 -133 L 847 -119 Z" stroke="#8abc63" fill="#8abc63"
                style="animation-play-state:paused"></path>
            <path d="M 725 -110 L 1127 -137 L 627 -114 Z" stroke="#91c063" fill="#91c063"
                style="animation-play-state:paused"></path>
            <path d="M 1041 485 L 1151 393 L 1035 385 Z" stroke="#2b664a" fill="#2b664a"
                style="animation-play-state:paused"></path>
            <path d="M 223 -129 L 245 -18 L 328 -22 Z" stroke="#a5cd66" fill="#a5cd66"
                style="animation-play-state:paused"></path>
            <path d="M 150 168 L 164 305 L 264 202 Z" stroke="#79af60" fill="#79af60"
                style="animation-play-state:paused"></path>
            <path d="M 741 687 L 837 681 L 855 587 Z" stroke="#296348" fill="#296348"
                style="animation-play-state:paused"></path>
            <path d="M 933 581 L 1039 593 L 1041 485 Z" stroke="#235b44" fill="#235b44"
                style="animation-play-state:paused"></path>
            <path d="M 1041 485 L 1150 488 L 1151 393 Z" stroke="#265f47" fill="#265f47"
                style="animation-play-state:paused"></path>
            <path d="M 535 695 L 837 681 L 741 687 Z" stroke="#2f6b4c" fill="#2f6b4c"
                style="animation-play-state:paused"></path>
            <path d="M 234 385 L 251 501 L 328 487 Z" stroke="#59965a" fill="#59965a"
                style="animation-play-state:paused"></path>
            <path d="M 345 601 L 427 681 L 440 576 Z" stroke="#468455" fill="#468455"
                style="animation-play-state:paused"></path>
            <path d="M 335 687 L 427 681 L 345 601 Z" stroke="#488556" fill="#488556"
                style="animation-play-state:paused"></path>
            <path d="M 1142 70 L 1122 -33 L 1056 -33 Z" stroke="#6ca55e" fill="#6ca55e"
                style="animation-play-state:paused"></path>
            <path d="M 1228 -31 L 1122 -33 L 1142 70 Z" stroke="#6aa45e" fill="#6aa45e"
                style="animation-play-state:paused"></path>
            <path d="M 1231 156 L 1140 183 L 1237 263 Z" stroke="#458255" fill="#458255"
                style="animation-play-state:paused"></path>
            <path d="M 937 683 L 1039 593 L 933 581 Z" stroke="#215943" fill="#215943"
                style="animation-play-state:paused"></path>
            <path d="M 837 681 L 937 683 L 855 587 Z" stroke="#255e46" fill="#255e46"
                style="animation-play-state:paused"></path>
            <path d="M 150 168 L 264 202 L 232 86 Z" stroke="#82b661" fill="#82b661"
                style="animation-play-state:paused"></path>
            <path d="M 234 385 L 159 502 L 251 501 Z" stroke="#5e995b" fill="#5e995b"
                style="animation-play-state:paused"></path>
            <path d="M 140 94 L 150 168 L 232 86 Z" stroke="#8bbd63" fill="#8bbd63" style="animation-play-state:paused">
            </path>
            <path d="M 1039 593 L 1150 488 L 1041 485 Z" stroke="#225a44" fill="#225a44"
                style="animation-play-state:paused"></path>
            <path d="M 137 -8 L 140 94 L 232 86 Z" stroke="#96c464" fill="#96c464" style="animation-play-state:paused">
            </path>
            <path d="M 137 -8 L 232 86 L 245 -18 Z" stroke="#9ac764" fill="#9ac764" style="animation-play-state:paused">
            </path>
            <path d="M 42 378 L 154 402 L 164 305 Z" stroke="#6fa75f" fill="#6fa75f"
                style="animation-play-state:paused"></path>
            <path d="M 164 305 L 154 402 L 234 385 Z" stroke="#69a35e" fill="#69a35e"
                style="animation-play-state:paused"></path>
            <path d="M 334 -134 L 223 -129 L 328 -22 Z" stroke="#abd166" fill="#abd166"
                style="animation-play-state:paused"></path>
            <path d="M 1237 263 L 1148 284 L 1231 362 Z" stroke="#36724f" fill="#36724f"
                style="animation-play-state:paused"></path>
            <path d="M 1237 263 L 1140 183 L 1148 284 Z" stroke="#3f7c53" fill="#3f7c53"
                style="animation-play-state:paused"></path>
            <path d="M 1231 362 L 1148 284 L 1151 393 Z" stroke="#306c4c" fill="#306c4c"
                style="animation-play-state:paused"></path>
            <path d="M 159 502 L 234 577 L 251 501 Z" stroke="#5a965a" fill="#5a965a"
                style="animation-play-state:paused"></path>
            <path d="M 251 501 L 234 577 L 345 601 Z" stroke="#539059" fill="#539059"
                style="animation-play-state:paused"></path>
            <path d="M 234 577 L 335 687 L 345 601 Z" stroke="#4e8b58" fill="#4e8b58"
                style="animation-play-state:paused"></path>
            <path d="M 427 681 L 335 687 L 535 695 Z" stroke="#438054" fill="#438054"
                style="animation-play-state:paused"></path>
            <path d="M 1245 -127 L 1127 -137 L 1122 -33 Z" stroke="#80b561" fill="#80b561"
                style="animation-play-state:paused"></path>
            <path d="M 1122 -33 L 1127 -137 L 1045 -133 Z" stroke="#82b661" fill="#82b661"
                style="animation-play-state:paused"></path>
            <path d="M 1045 -133 L 1127 -137 L 725 -110 Z" stroke="#8dbe63" fill="#8dbe63"
                style="animation-play-state:paused"></path>
            <path d="M 627 -114 L 32 -141 L 334 -134 Z" stroke="#b0d467" fill="#b0d467"
                style="animation-play-state:paused"></path>
            <path d="M 1247 468 L 1231 362 L 1151 393 Z" stroke="#286248" fill="#286248"
                style="animation-play-state:paused"></path>
            <path d="M 1228 -31 L 1245 71 L 1344 77 Z" stroke="#609c5c" fill="#609c5c"
                style="animation-play-state:paused"></path>
            <path d="M 1231 156 L 1245 71 L 1142 70 Z" stroke="#56935a" fill="#56935a"
                style="animation-play-state:paused"></path>
            <path d="M 223 -129 L 137 -8 L 245 -18 Z" stroke="#a9d066" fill="#a9d066"
                style="animation-play-state:paused"></path>
            <path d="M 60 79 L 39 185 L 150 168 Z" stroke="#8fbf63" fill="#8fbf63" style="animation-play-state:paused">
            </path>
            <path d="M 154 402 L 159 502 L 234 385 Z" stroke="#639e5c" fill="#639e5c"
                style="animation-play-state:paused"></path>
            <path d="M 234 577 L 248 695 L 335 687 Z" stroke="#508d58" fill="#508d58"
                style="animation-play-state:paused"></path>
            <path d="M 27 459 L 159 502 L 154 402 Z" stroke="#67a15d" fill="#67a15d"
                style="animation-play-state:paused"></path>
            <path d="M 1039 593 L 1162 585 L 1150 488 Z" stroke="#1e5441" fill="#1e5441"
                style="animation-play-state:paused"></path>
            <path d="M 1150 488 L 1247 468 L 1151 393 Z" stroke="#245d45" fill="#245d45"
                style="animation-play-state:paused"></path>
            <path d="M 937 683 L 1050 679 L 1039 593 Z" stroke="#1e5441" fill="#1e5441"
                style="animation-play-state:paused"></path>
            <path d="M 837 681 L 1050 679 L 937 683 Z" stroke="#215843" fill="#215843"
                style="animation-play-state:paused"></path>
            <path d="M 1050 679 L 1162 585 L 1039 593 Z" stroke="#1c513f" fill="#1c513f"
                style="animation-play-state:paused"></path>
            <path d="M 1245 71 L 1228 -31 L 1142 70 Z" stroke="#629d5c" fill="#629d5c"
                style="animation-play-state:paused"></path>
            <path d="M 1344 77 L 1245 71 L 1231 156 Z" stroke="#549159" fill="#549159"
                style="animation-play-state:paused"></path>
            <path d="M 1348 206 L 1231 156 L 1237 263 Z" stroke="#428054" fill="#428054"
                style="animation-play-state:paused"></path>
            <path d="M 1240 585 L 1247 468 L 1150 488 Z" stroke="#1e5340" fill="#1e5340"
                style="animation-play-state:paused"></path>
            <path d="M 1231 362 L 1355 301 L 1237 263 Z" stroke="#336f4e" fill="#336f4e"
                style="animation-play-state:paused"></path>
            <path d="M 60 79 L 150 168 L 140 94 Z" stroke="#91c063" fill="#91c063" style="animation-play-state:paused">
            </path>
            <path d="M 150 168 L 27 268 L 164 305 Z" stroke="#7db261" fill="#7db261"
                style="animation-play-state:paused"></path>
            <path d="M 131 670 L 248 695 L 234 577 Z" stroke="#56925a" fill="#56925a"
                style="animation-play-state:paused"></path>
            <path d="M 335 687 L 248 695 L 535 695 Z" stroke="#478556" fill="#478556"
                style="animation-play-state:paused"></path>
            <path d="M 535 695 L 1363 682 L 837 681 Z" stroke="#235b44" fill="#235b44"
                style="animation-play-state:paused"></path>
            <path d="M 137 -8 L 60 79 L 140 94 Z" stroke="#9bc764" fill="#9bc764" style="animation-play-state:paused">
            </path>
            <path d="M 38 -23 L 60 79 L 137 -8 Z" stroke="#a5ce66" fill="#a5ce66" style="animation-play-state:paused">
            </path>
            <path d="M -44 191 L 27 268 L 39 185 Z" stroke="#8bbc63" fill="#8bbc63" style="animation-play-state:paused">
            </path>
            <path d="M 39 185 L 27 268 L 150 168 Z" stroke="#86b962" fill="#86b962" style="animation-play-state:paused">
            </path>
            <path d="M 159 502 L 139 576 L 234 577 Z" stroke="#5b975b" fill="#5b975b"
                style="animation-play-state:paused"></path>
            <path d="M 334 -134 L 122 -127 L 223 -129 Z" stroke="#b8d967" fill="#b8d967"
                style="animation-play-state:paused"></path>
            <path d="M 223 -129 L 122 -127 L 137 -8 Z" stroke="#b3d667" fill="#b3d667"
                style="animation-play-state:paused"></path>
            <path d="M 27 459 L 139 576 L 159 502 Z" stroke="#649e5d" fill="#649e5d"
                style="animation-play-state:paused"></path>
            <path d="M 27 268 L 42 378 L 164 305 Z" stroke="#78ae60" fill="#78ae60" style="animation-play-state:paused">
            </path>
            <path d="M 1228 -31 L 1245 -127 L 1122 -33 Z" stroke="#77ae60" fill="#77ae60"
                style="animation-play-state:paused"></path>
            <path d="M 1050 679 L 1158 684 L 1162 585 Z" stroke="#194c3c" fill="#194c3c"
                style="animation-play-state:paused"></path>
            <path d="M 1162 585 L 1240 585 L 1150 488 Z" stroke="#1c503f" fill="#1c503f"
                style="animation-play-state:paused"></path>
            <path d="M 1363 682 L 1158 684 L 1050 679 Z" stroke="#154639" fill="#154639"
                style="animation-play-state:paused"></path>
            <path d="M 1228 690 L 1240 585 L 1162 585 Z" stroke="#16483a" fill="#16483a"
                style="animation-play-state:paused"></path>
            <path d="M 1360 383 L 1355 301 L 1231 362 Z" stroke="#2c674a" fill="#2c674a"
                style="animation-play-state:paused"></path>
            <path d="M 1338 464 L 1231 362 L 1247 468 Z" stroke="#245c45" fill="#245c45"
                style="animation-play-state:paused"></path>
            <path d="M 1228 -31 L 1348 -122 L 1245 -127 Z" stroke="#7cb261" fill="#7cb261"
                style="animation-play-state:paused"></path>
            <path d="M 1355 301 L 1348 206 L 1237 263 Z" stroke="#3a7751" fill="#3a7751"
                style="animation-play-state:paused"></path>
            <path d="M 1348 206 L 1344 77 L 1231 156 Z" stroke="#4c8957" fill="#4c8957"
                style="animation-play-state:paused"></path>
            <path d="M 122 -127 L 38 -23 L 137 -8 Z" stroke="#b1d567" fill="#b1d567"
                style="animation-play-state:paused"></path>
            <path d="M 60 79 L -44 191 L 39 185 Z" stroke="#93c264" fill="#93c264" style="animation-play-state:paused">
            </path>
            <path d="M -59 307 L 42 378 L 27 268 Z" stroke="#7eb361" fill="#7eb361" style="animation-play-state:paused">
            </path>
            <path d="M -53 388 L 27 459 L 42 378 Z" stroke="#75ac60" fill="#75ac60" style="animation-play-state:paused">
            </path>
            <path d="M 42 378 L 27 459 L 154 402 Z" stroke="#6ea75e" fill="#6ea75e" style="animation-play-state:paused">
            </path>
            <path d="M 1332 570 L 1338 464 L 1247 468 Z" stroke="#1c503f" fill="#1c503f"
                style="animation-play-state:paused"></path>
            <path d="M 1338 464 L 1360 383 L 1231 362 Z" stroke="#265f46" fill="#265f46"
                style="animation-play-state:paused"></path>
            <path d="M 1355 301 L 1445 291 L 1348 206 Z" stroke="#377450" fill="#377450"
                style="animation-play-state:paused"></path>
            <path d="M 1348 -122 L 1338 -18 L 1461 -26 Z" stroke="#72aa5f" fill="#72aa5f"
                style="animation-play-state:paused"></path>
            <path d="M 1344 77 L 1338 -18 L 1228 -31 Z" stroke="#66a05d" fill="#66a05d"
                style="animation-play-state:paused"></path>
            <path d="M 39 563 L 131 670 L 139 576 Z" stroke="#609b5c" fill="#609b5c"
                style="animation-play-state:paused"></path>
            <path d="M 139 576 L 131 670 L 234 577 Z" stroke="#5a965b" fill="#5a965b"
                style="animation-play-state:paused"></path>
            <path d="M -56 81 L -44 191 L 60 79 Z" stroke="#9cc765" fill="#9cc765" style="animation-play-state:paused">
            </path>
            <path d="M 1158 684 L 1228 690 L 1162 585 Z" stroke="#16483a" fill="#16483a"
                style="animation-play-state:paused"></path>
            <path d="M 1240 585 L 1332 570 L 1247 468 Z" stroke="#194d3d" fill="#194d3d"
                style="animation-play-state:paused"></path>
            <path d="M -44 191 L -59 307 L 27 268 Z" stroke="#88bb62" fill="#88bb62"
                style="animation-play-state:paused"></path>
            <path d="M 27 459 L 39 563 L 139 576 Z" stroke="#66a05d" fill="#66a05d" style="animation-play-state:paused">
            </path>
            <path d="M -54 475 L 39 563 L 27 459 Z" stroke="#6ea75e" fill="#6ea75e" style="animation-play-state:paused">
            </path>
            <path d="M 334 -134 L 32 -141 L 122 -127 Z" stroke="#bddc68" fill="#bddc68"
                style="animation-play-state:paused"></path>
            <path d="M 122 -127 L 32 -141 L 38 -23 Z" stroke="#bddc68" fill="#bddc68"
                style="animation-play-state:paused"></path>
            <path d="M 38 -23 L -56 81 L 60 79 Z" stroke="#a5ce66" fill="#a5ce66" style="animation-play-state:paused">
            </path>
            <path d="M 1127 -137 L 32 -141 L 627 -114 Z" stroke="#9fca65" fill="#9fca65"
                style="animation-play-state:paused"></path>
            <path d="M 1228 690 L 1332 570 L 1240 585 Z" stroke="#154538" fill="#154538"
                style="animation-play-state:paused"></path>
            <path d="M 1446 469 L 1419 383 L 1360 383 Z" stroke="#235b44" fill="#235b44"
                style="animation-play-state:paused"></path>
            <path d="M 1441 81 L 1344 77 L 1348 206 Z" stroke="#4f8c58" fill="#4f8c58"
                style="animation-play-state:paused"></path>
            <path d="M 1461 -26 L 1338 -18 L 1344 77 Z" stroke="#649f5d" fill="#649f5d"
                style="animation-play-state:paused"></path>
            <path d="M 1338 -18 L 1348 -122 L 1228 -31 Z" stroke="#74ab5f" fill="#74ab5f"
                style="animation-play-state:paused"></path>
            <path d="M -157 290 L -53 388 L -59 307 Z" stroke="#86b962" fill="#86b962"
                style="animation-play-state:paused"></path>
            <path d="M -59 307 L -53 388 L 42 378 Z" stroke="#7cb261" fill="#7cb261"
                style="animation-play-state:paused"></path>
            <path d="M -53 -24 L -56 81 L 38 -23 Z" stroke="#afd467" fill="#afd467" style="animation-play-state:paused">
            </path>
            <path d="M -44 191 L -157 290 L -59 307 Z" stroke="#8dbe63" fill="#8dbe63"
                style="animation-play-state:paused"></path>
            <path d="M 1419 383 L 1355 301 L 1360 383 Z" stroke="#2a6549" fill="#2a6549"
                style="animation-play-state:paused"></path>
            <path d="M 1419 383 L 1445 291 L 1355 301 Z" stroke="#2e694b" fill="#2e694b"
                style="animation-play-state:paused"></path>
            <path d="M 1446 469 L 1360 383 L 1338 464 Z" stroke="#205743" fill="#205743"
                style="animation-play-state:paused"></path>
            <path d="M -53 388 L -54 475 L 27 459 Z" stroke="#75ac60" fill="#75ac60"
                style="animation-play-state:paused"></path>
            <path d="M 1536 262 L 1441 202 L 1445 291 Z" stroke="#387550" fill="#387550"
                style="animation-play-state:paused"></path>
            <path d="M 1445 291 L 1441 202 L 1348 206 Z" stroke="#3c7952" fill="#3c7952"
                style="animation-play-state:paused"></path>
            <path d="M 32 -141 L -53 -24 L 38 -23 Z" stroke="#bbdb68" fill="#bbdb68"
                style="animation-play-state:paused"></path>
            <path d="M -69 676 L 37 681 L 39 563 Z" stroke="#68a25d" fill="#68a25d" style="animation-play-state:paused">
            </path>
            <path d="M 39 563 L 37 681 L 131 670 Z" stroke="#629d5c" fill="#629d5c" style="animation-play-state:paused">
            </path>
            <path d="M 131 670 L 37 681 L 248 695 Z" stroke="#5b975b" fill="#5b975b"
                style="animation-play-state:paused"></path>
            <path d="M 1441 202 L 1441 81 L 1348 206 Z" stroke="#478556" fill="#478556"
                style="animation-play-state:paused"></path>
            <path d="M 1332 570 L 1446 469 L 1338 464 Z" stroke="#1a4e3d" fill="#1a4e3d"
                style="animation-play-state:paused"></path>
            <path d="M 1419 383 L 1536 262 L 1445 291 Z" stroke="#2f6b4c" fill="#2f6b4c"
                style="animation-play-state:paused"></path>
            <path d="M 1440 591 L 1446 469 L 1332 570 Z" stroke="#164739" fill="#164739"
                style="animation-play-state:paused"></path>
            <path d="M 1441 81 L 1461 -26 L 1344 77 Z" stroke="#5d995b" fill="#5d995b"
                style="animation-play-state:paused"></path>
            <path d="M 32 -141 L -73 -138 L -53 -24 Z" stroke="#c6e169" fill="#c6e169"
                style="animation-play-state:paused"></path>
            <path d="M -152 176 L -44 191 L -56 81 Z" stroke="#9dc865" fill="#9dc865"
                style="animation-play-state:paused"></path>
            <path d="M -54 475 L -77 574 L 39 563 Z" stroke="#6fa85f" fill="#6fa85f"
                style="animation-play-state:paused"></path>
            <path d="M -179 481 L -77 574 L -54 475 Z" stroke="#78af60" fill="#78af60"
                style="animation-play-state:paused"></path>
            <path d="M -179 481 L -54 475 L -53 388 Z" stroke="#7bb160" fill="#7bb160"
                style="animation-play-state:paused"></path>
            <path d="M -157 290 L -44 191 L -152 176 Z" stroke="#96c464" fill="#96c464"
                style="animation-play-state:paused"></path>
            <path d="M -152 176 L -56 81 L -158 75 Z" stroke="#a7cf66" fill="#a7cf66"
                style="animation-play-state:paused"></path>
            <path d="M 1158 684 L 1363 682 L 1228 690 Z" stroke="#134236" fill="#134236"
                style="animation-play-state:paused"></path>
            <path d="M 1228 690 L 1363 682 L 1332 570 Z" stroke="#124035" fill="#124035"
                style="animation-play-state:paused"></path>
            <path d="M 837 681 L 1363 682 L 1050 679 Z" stroke="#1a4e3d" fill="#1a4e3d"
                style="animation-play-state:paused"></path>
            <path d="M 248 695 L 1363 682 L 535 695 Z" stroke="#2e6a4b" fill="#2e6a4b"
                style="animation-play-state:paused"></path>
            <path d="M -158 75 L -56 81 L -172 -8 Z" stroke="#b2d567" fill="#b2d567"
                style="animation-play-state:paused"></path>
            <path d="M 1461 -26 L 1457 -124 L 1348 -122 Z" stroke="#7ab060" fill="#7ab060"
                style="animation-play-state:paused"></path>
            <path d="M 1348 -122 L 1457 -124 L 1245 -127 Z" stroke="#82b661" fill="#82b661"
                style="animation-play-state:paused"></path>
            <path d="M 1245 -127 L 1457 -124 L 1127 -137 Z" stroke="#85b862" fill="#85b862"
                style="animation-play-state:paused"></path>
            <path d="M 1530 -12 L 1457 -124 L 1461 -26 Z" stroke="#71a95f" fill="#71a95f"
                style="animation-play-state:paused"></path>
            <path d="M -172 -8 L -56 81 L -53 -24 Z" stroke="#b5d767" fill="#b5d767"
                style="animation-play-state:paused"></path>
            <path d="M -282 356 L -156 367 L -157 290 Z" stroke="#90c063" fill="#90c063"
                style="animation-play-state:paused"></path>
            <path d="M -157 290 L -156 367 L -53 388 Z" stroke="#87ba62" fill="#87ba62"
                style="animation-play-state:paused"></path>
            <path d="M -276 259 L -157 290 L -152 176 Z" stroke="#9bc764" fill="#9bc764"
                style="animation-play-state:paused"></path>
            <path d="M 1363 682 L 1440 591 L 1332 570 Z" stroke="#113f34" fill="#113f34"
                style="animation-play-state:paused"></path>
            <path d="M 1527 385 L 1536 262 L 1419 383 Z" stroke="#2a6549" fill="#2a6549"
                style="animation-play-state:paused"></path>
            <path d="M 1527 385 L 1419 383 L 1446 469 Z" stroke="#225a44" fill="#225a44"
                style="animation-play-state:paused"></path>
            <path d="M 1441 202 L 1542 174 L 1441 81 Z" stroke="#488656" fill="#488656"
                style="animation-play-state:paused"></path>
            <path d="M 1441 81 L 1530 -12 L 1461 -26 Z" stroke="#629d5c" fill="#629d5c"
                style="animation-play-state:paused"></path>
            <path d="M 1536 262 L 1542 174 L 1441 202 Z" stroke="#3e7b52" fill="#3e7b52"
                style="animation-play-state:paused"></path>
            <path d="M -73 -138 L -172 -8 L -53 -24 Z" stroke="#c3e069" fill="#c3e069"
                style="animation-play-state:paused"></path>
            <path d="M -166 571 L -69 676 L -77 574 Z" stroke="#74ab5f" fill="#74ab5f"
                style="animation-play-state:paused"></path>
            <path d="M -77 574 L -69 676 L 39 563 Z" stroke="#6da65e" fill="#6da65e"
                style="animation-play-state:paused"></path>
            <path d="M 1552 495 L 1527 385 L 1446 469 Z" stroke="#1d5340" fill="#1d5340"
                style="animation-play-state:paused"></path>
            <path d="M 1536 262 L 1527 385 L 1542 174 Z" stroke="#34714e" fill="#34714e"
                style="animation-play-state:paused"></path>
            <path d="M -254 463 L -179 481 L -156 367 Z" stroke="#86b962" fill="#86b962"
                style="animation-play-state:paused"></path>
            <path d="M -156 367 L -179 481 L -53 388 Z" stroke="#82b661" fill="#82b661"
                style="animation-play-state:paused"></path>
            <path d="M 1527 385 L 1542 87 L 1542 174 Z" stroke="#3e7b52" fill="#3e7b52"
                style="animation-play-state:paused"></path>
            <path d="M 1542 174 L 1542 87 L 1441 81 Z" stroke="#4f8c58" fill="#4f8c58"
                style="animation-play-state:paused"></path>
            <path d="M 1542 87 L 1530 -12 L 1441 81 Z" stroke="#5b975b" fill="#5b975b"
                style="animation-play-state:paused"></path>
            <path d="M 1363 682 L 1434 675 L 1440 591 Z" stroke="#0e3931" fill="#0e3931"
                style="animation-play-state:paused"></path>
            <path d="M 1440 591 L 1552 495 L 1446 469 Z" stroke="#17493a" fill="#17493a"
                style="animation-play-state:paused"></path>
            <path d="M 1558 605 L 1552 495 L 1440 591 Z" stroke="#124135" fill="#124135"
                style="animation-play-state:paused"></path>
            <path d="M 1527 385 L 1558 605 L 1542 87 Z" stroke="#286248" fill="#286248"
                style="animation-play-state:paused"></path>
            <path d="M 32 -141 L -153 -140 L -73 -138 Z" stroke="#d2e76a" fill="#d2e76a"
                style="animation-play-state:paused"></path>
            <path d="M -73 -138 L -153 -140 L -172 -8 Z" stroke="#cee66a" fill="#cee66a"
                style="animation-play-state:paused"></path>
            <path d="M -270 81 L -266 193 L -158 75 Z" stroke="#b1d567" fill="#b1d567"
                style="animation-play-state:paused"></path>
            <path d="M -158 75 L -266 193 L -152 176 Z" stroke="#a8cf66" fill="#a8cf66"
                style="animation-play-state:paused"></path>
            <path d="M -179 481 L -166 571 L -77 574 Z" stroke="#7ab060" fill="#7ab060"
                style="animation-play-state:paused"></path>
            <path d="M 1542 87 L 1542 -127 L 1530 -12 Z" stroke="#69a25d" fill="#69a25d"
                style="animation-play-state:paused"></path>
            <path d="M 1530 -12 L 1542 -127 L 1457 -124 Z" stroke="#78af60" fill="#78af60"
                style="animation-play-state:paused"></path>
            <path d="M 1457 -124 L 1542 -127 L 1127 -137 Z" stroke="#83b762" fill="#83b762"
                style="animation-play-state:paused"></path>
            <path d="M -270 81 L -158 75 L -172 -8 Z" stroke="#b9da68" fill="#b9da68"
                style="animation-play-state:paused"></path>
            <path d="M -179 481 L -241 592 L -166 571 Z" stroke="#7fb461" fill="#7fb461"
                style="animation-play-state:paused"></path>
            <path d="M -266 193 L -276 259 L -152 176 Z" stroke="#a3cc65" fill="#a3cc65"
                style="animation-play-state:paused"></path>
            <path d="M 1543 668 L 1558 605 L 1440 591 Z" stroke="#0e3830" fill="#0e3830"
                style="animation-play-state:paused"></path>
            <path d="M 1552 495 L 1558 605 L 1527 385 Z" stroke="#184b3c" fill="#184b3c"
                style="animation-play-state:paused"></path>
            <path d="M -241 592 L -165 667 L -166 571 Z" stroke="#7cb261" fill="#7cb261"
                style="animation-play-state:paused"></path>
            <path d="M -166 571 L -165 667 L -69 676 Z" stroke="#76ad60" fill="#76ad60"
                style="animation-play-state:paused"></path>
            <path d="M -69 676 L -165 667 L 37 681 Z" stroke="#6ea75e" fill="#6ea75e"
                style="animation-play-state:paused"></path>
            <path d="M 37 681 L -165 667 L 248 695 Z" stroke="#649f5d" fill="#649f5d"
                style="animation-play-state:paused"></path>
            <path d="M -276 259 L -282 356 L -157 290 Z" stroke="#98c564" fill="#98c564"
                style="animation-play-state:paused"></path>
            <path d="M -270 -14 L -270 81 L -172 -8 Z" stroke="#c2df68" fill="#c2df68"
                style="animation-play-state:paused"></path>
            <path d="M -266 193 L -270 81 L -276 259 Z" stroke="#abd266" fill="#abd266"
                style="animation-play-state:paused"></path>
            <path d="M -276 259 L -270 81 L -282 356 Z" stroke="#a4cd66" fill="#a4cd66"
                style="animation-play-state:paused"></path>
            <path d="M -282 356 L -254 463 L -156 367 Z" stroke="#8ebe63" fill="#8ebe63"
                style="animation-play-state:paused"></path>
            <path d="M -264 -113 L -270 -14 L -172 -8 Z" stroke="#cee56a" fill="#cee56a"
                style="animation-play-state:paused"></path>
            <path d="M 1363 682 L 1543 668 L 1434 675 Z" stroke="#0c352e" fill="#0c352e"
                style="animation-play-state:paused"></path>
            <path d="M 1434 675 L 1543 668 L 1440 591 Z" stroke="#0d372f" fill="#0d372f"
                style="animation-play-state:paused"></path>
            <path d="M -153 -140 L -264 -113 L -172 -8 Z" stroke="#d3e86a" fill="#d3e86a"
                style="animation-play-state:paused"></path>
            <path d="M -254 463 L -241 592 L -179 481 Z" stroke="#84b862" fill="#84b862"
                style="animation-play-state:paused"></path>
            <path d="M -254 463 L -276 689 L -241 592 Z" stroke="#84b862" fill="#84b862"
                style="animation-play-state:paused"></path>
            <path d="M -241 592 L -276 689 L -165 667 Z" stroke="#7fb461" fill="#7fb461"
                style="animation-play-state:paused"></path>
            <path d="M -282 356 L -276 689 L -254 463 Z" stroke="#8abc62" fill="#8abc62"
                style="animation-play-state:paused"></path>
            <path d="M -270 81 L -276 689 L -282 356 Z" stroke="#94c364" fill="#94c364"
                style="animation-play-state:paused"></path>
        </g>
        <style type="text/css" style="animation-play-state:paused">
            #bk-0.8149883299826919 path {
                stroke-width: 1
            }
        </style>
    </g>
</svg>